<svg xmlns="http://www.w3.org/2000/svg" version="1.1" xmlns:xlink="http://www.w3.org/1999/xlink" width="512" height="512" x="0" y="0" viewBox="0 0 512 512" style="enable-background:new 0 0 512 512" xml:space="preserve" class=""><g><path d="M330.081 361.019h163.805c8.891 0 13.827-10.291 8.262-17.225l-37.837-47.143 37.837-47.143c5.565-6.934.629-17.225-8.262-17.225H18.114c-8.891 0-13.828 10.291-8.262 17.225l37.837 47.143-37.837 47.142c-5.565 6.934-.629 17.225 8.262 17.225h276.967" style="stroke-width:15;stroke-linecap:round;stroke-linejoin:round;stroke-miterlimit:10;" fill="none" stroke="#35857d" stroke-width="15" stroke-linecap="round" stroke-linejoin="round" stroke-miterlimit="10" data-original="#35857d" class=""></path><path d="m223.091 329.357 24.563-64.493c.502-1.227 2.239-1.229 2.743-.003l24.34 64.496M230.752 313.295h36.449M306.716 329.357v-65.292l44.144 63.923c.819 1.182 1.695.603 1.695-.835l-.611-63.21M428.157 297.617c0 17.491-9.707 31.331-25.109 31.6l-18.376.14-.129-63.48h17.979c16.892.001 25.635 14.25 25.635 31.74zM117.897 278.995c0 8.313-6.739 15.052-15.052 15.052-4.123 0-19.001.067-19.001.067v-30.17h19.001c8.313-.001 15.052 6.738 15.052 15.051z" style="stroke-width:15;stroke-linecap:round;stroke-linejoin:round;stroke-miterlimit:10;" fill="none" stroke="#35857d" stroke-width="15" stroke-linecap="round" stroke-linejoin="round" stroke-miterlimit="10" data-original="#35857d" class=""></path><path d="M123.771 311.672c0 9.724-7.883 17.608-17.608 17.608-4.823 0-22.32.078-22.32.078v-35.293h22.32c9.725-.001 17.608 7.883 17.608 17.607zM163.71 298.136l27.479 31.221M155.822 263.943v65.414M191.189 280.943c0 9.389-8.233 17.001-17.963 17.001-4.825 0-17.262.075-17.262.075s-.078-12.343-.078-17.076c0-3.887-.043-17.001-.043-17.001h17.383c9.73.001 17.963 7.612 17.963 17.001zM496.473 14.202c-14.514-16.053-55.911-2.277-92.464 30.77-13.286 12.012-24.087 24.914-31.778 37.246l-41.958 47.996 33.98 37.585 52.06-36.815c13.044-6.413 26.967-15.864 40.254-27.877 36.555-33.048 54.42-72.852 39.906-88.905zM372.469 81.946l44.144 48.826M148.156 189.547c-12.262 12.348-22.426 26.783-29.893 42.735M291.954 148.942A152.309 152.309 0 0 0 256 144.639c-29.561 0-57.135 8.458-80.475 23.058M393.737 232.281c-8.41-17.966-20.237-34.01-34.634-47.311" style="stroke-width:15;stroke-linecap:round;stroke-linejoin:round;stroke-miterlimit:10;" fill="none" stroke="#35857d" stroke-width="15" stroke-linecap="round" stroke-linejoin="round" stroke-miterlimit="10" data-original="#35857d" class=""></path><path d="M347.848 110.11c-7.201-8.637-14.886-16.427-24.851-19.663-20.169-6.549-44.645 8.544-66.997 8.544-22.353 0-46.828-15.093-66.998-8.544-20.904 6.787-31.783 33.612-49.183 46.275-17.574 12.79-46.4 14.935-59.19 32.509-12.015 16.509-6.531 42.57-11.735 63.05M443.105 232.281c-5.203-20.481.28-46.541-11.735-63.05-8.368-11.498-23.601-16.392-38.055-21.983M330.359 130.308a37.2 37.2 0 0 0-16.378 2.769c-23.604 9.779-31.904 33.216-48.092 39.422-5.31 2.036-6.731 8.891-2.725 12.927 20.072 20.22 58.421 32.375 87.333 9.395 8.611-6.844 13.303-16.842 13.761-27.025M118.263 361.019C142.5 412.792 195.057 448.661 256 448.661s113.5-35.869 137.737-87.642" style="stroke-width:15;stroke-linecap:round;stroke-linejoin:round;stroke-miterlimit:10;" fill="none" stroke="#35857d" stroke-width="15" stroke-linecap="round" stroke-linejoin="round" stroke-miterlimit="10" data-original="#35857d" class=""></path><path d="M68.895 361.019c5.203 20.481-.28 46.541 11.735 63.05 12.79 17.574 41.616 19.719 59.19 32.509 17.4 12.663 28.279 39.487 49.183 46.275 20.17 6.549 44.645-8.544 66.997-8.544 22.353 0 46.828 15.093 66.998 8.544 20.904-6.787 31.783-33.612 49.183-46.275 17.574-12.79 46.4-14.935 59.19-32.509 12.015-16.509 6.531-42.57 11.735-63.05" style="stroke-width:15;stroke-linecap:round;stroke-linejoin:round;stroke-miterlimit:10;" fill="none" stroke="#35857d" stroke-width="15" stroke-linecap="round" stroke-linejoin="round" stroke-miterlimit="10" data-original="#35857d" class=""></path></g></svg>