<svg width="20" height="20" viewBox="0 0 20 20" fill="none" xmlns="http://www.w3.org/2000/svg">
<path d="M0.75 8V17.75C0.75 18.3023 1.19772 18.75 1.75 18.75H6.25C6.80228 18.75 7.25 18.3023 7.25 17.75V13.25C7.25 11.8693 8.3693 10.75 9.75 10.75C11.1307 10.75 12.25 11.8693 12.25 13.25V17.75C12.25 18.3023 12.6977 18.75 13.25 18.75H17.75C18.3023 18.75 18.75 18.3023 18.75 17.75V8C18.75 7.68524 18.6018 7.38885 18.35 7.2L9.75 0.75L1.15 7.2C0.89819 7.38885 0.75 7.68524 0.75 8Z" stroke="white" stroke-width="1.5" stroke-linecap="round" stroke-linejoin="round"/>
</svg>
