<svg width="21" height="20" viewBox="0 0 21 20" fill="none" xmlns="http://www.w3.org/2000/svg">
<path d="M0.75 18.75V14.75C0.75 13.6454 1.64543 12.75 2.75 12.75H8.75M13.75 4.75C13.75 6.95914 11.9591 8.75 9.75 8.75C7.54086 8.75 5.75 6.95914 5.75 4.75C5.75 2.54086 7.54086 0.75 9.75 0.75C11.9591 0.75 13.75 2.54086 13.75 4.75ZM15.75 10.75C15.75 12.9591 13.9591 14.75 11.75 14.75C13.9591 14.75 15.75 16.5409 15.75 18.75C15.75 16.5409 17.5409 14.75 19.75 14.75C17.5409 14.75 15.75 12.9591 15.75 10.75Z" stroke="#ABABAB" stroke-width="1.5" stroke-linecap="round" stroke-linejoin="round"/>
</svg>
