<svg width="22" height="22" viewBox="0 0 22 22" fill="none" xmlns="http://www.w3.org/2000/svg">
<path d="M4.50988 18.5748C5.6673 16.3047 8.02709 14.75 10.75 14.75C13.4519 14.75 15.7962 16.2808 16.9631 18.5223M13.0833 9.1944C13.0833 10.5445 11.9889 11.6389 10.6389 11.6389C9.2889 11.6389 8.19444 10.5445 8.19444 9.1944C8.19444 7.84442 9.2889 6.75 10.6389 6.75C11.9889 6.75 13.0833 7.84442 13.0833 9.1944ZM10.75 20.75C5.22715 20.75 0.75 16.2728 0.75 10.75C0.75 5.22715 5.22715 0.75 10.75 0.75C16.2728 0.75 20.75 5.22715 20.75 10.75C20.75 16.2728 16.2728 20.75 10.75 20.75Z" stroke="#ABABAB" stroke-width="1.5" stroke-linecap="round" stroke-linejoin="round"/>
</svg>
