<svg xmlns="http://www.w3.org/2000/svg" version="1.1" xmlns:xlink="http://www.w3.org/1999/xlink" width="512" height="512" x="0" y="0" viewBox="0 0 64 64" style="enable-background:new 0 0 512 512" xml:space="preserve" class="hovered-paths"><g><g data-name="Layer 20"><path d="M15 34a1 1 0 0 0 0-2h-4a1 1 0 0 0-1 1v6a1 1 0 0 0 1 1h4a1 1 0 0 0 0-2h-3v-4zM49 38a1 1 0 0 0 0 2h4a1 1 0 0 0 1-1v-6a1 1 0 0 0-1-1h-4a1 1 0 0 0 0 2h3v4zM26 31h12a1 1 0 0 0 0-2H26a1 1 0 0 0 0 2zM29 38a1 1 0 0 0-1-1h-4a1 1 0 0 0 0 2h4a1 1 0 0 0 1-1zM32 41h-6a1 1 0 0 0 0 2h6a1 1 0 0 0 0-2zM38 41h-2a1 1 0 0 0 0 2h2a1 1 0 0 0 0-2zM41 38a1 1 0 0 0-1-1h-8a1 1 0 0 0 0 2h8a1 1 0 0 0 1-1zM35 34a1 1 0 0 0 1 1h4a1 1 0 0 0 0-2h-4a1 1 0 0 0-1 1zM24 35h8a1 1 0 0 0 0-2h-8a1 1 0 0 0 0 2z" fill="#35857d" opacity="1" data-original="#35857d" class="hovered-path"></path><path d="M45.71 45.29a1 1 0 0 0-1.17-.16L43.45 44A14 14 0 1 0 40 47.45l1.1 1.09a1 1 0 0 0 .16 1.17l9.38 9.38A3.13 3.13 0 0 0 56 56.88a3.09 3.09 0 0 0-.91-2.21zM20 36a12 12 0 1 1 12 12 12 12 0 0 1-12-12zm22.17 9.59.92.91-.59.59-.91-.92zM52.88 58a1.1 1.1 0 0 1-.79-.33L43.41 49 45 47.41l8.67 8.68a1.12 1.12 0 0 1-.79 1.91z" fill="#35857d" opacity="1" data-original="#35857d" class="hovered-path"></path><path d="M59 8H5a1 1 0 0 0-1 1v46a1 1 0 0 0 1 1h37a1 1 0 0 0 0-2H6V18h52v37a1 1 0 0 0 2 0V9a1 1 0 0 0-1-1zM6 10h14v6H6zm16 6v-6h36v6z" fill="#35857d" opacity="1" data-original="#35857d" class="hovered-path"></path><path d="M9 12a1 1 0 1 0 1 1 1 1 0 0 0-1-1zM13 12a1 1 0 1 0 1 1 1 1 0 0 0-1-1zM17 12a1 1 0 1 0 1 1 1 1 0 0 0-1-1zM55 12H25a1 1 0 0 0 0 2h30a1 1 0 0 0 0-2z" fill="#35857d" opacity="1" data-original="#35857d" class="hovered-path"></path></g></g></svg>