<svg width="171" height="171" viewBox="0 0 171 171" fill="none" xmlns="http://www.w3.org/2000/svg">
<circle cx="85.5" cy="85.5" r="85" fill="#2A3342" stroke="#414E63"/>
<path d="M36.464 98.32C33.52 98.32 31.2267 97.3067 29.584 95.28C27.9413 93.232 27.12 90.384 27.12 86.736C27.12 84.3467 27.4827 82.2987 28.208 80.592C28.9547 78.864 30.032 77.552 31.44 76.656C32.848 75.7387 34.5227 75.28 36.464 75.28C38.4053 75.28 40.08 75.7387 41.488 76.656C42.896 77.552 43.9627 78.864 44.688 80.592C45.4347 82.2987 45.808 84.3467 45.808 86.736C45.808 90.384 44.9867 93.232 43.344 95.28C41.7013 97.3067 39.408 98.32 36.464 98.32ZM36.464 94.832C38.0427 94.832 39.2693 94.1493 40.144 92.784C41.0187 91.3973 41.456 89.3813 41.456 86.736C41.456 84.1333 41.0187 82.16 40.144 80.816C39.2907 79.4507 38.064 78.768 36.464 78.768C34.864 78.768 33.6267 79.4507 32.752 80.816C31.8987 82.16 31.472 84.1333 31.472 86.736C31.472 89.3813 31.9093 91.3973 32.784 92.784C33.6587 94.1493 34.8853 94.832 36.464 94.832ZM58.8735 98.32C56.6122 98.32 54.7988 97.84 53.4335 96.88C52.0682 95.8987 51.2042 94.576 50.8415 92.912L54.3615 91.696C55.0442 93.7867 56.5695 94.832 58.9375 94.832C60.6015 94.832 61.9348 94.192 62.9375 92.912C63.9402 91.6107 64.4415 89.808 64.4415 87.504H64.2815C62.8095 89.5733 60.8255 90.608 58.3295 90.608C56.6442 90.608 55.1722 90.2987 53.9135 89.68C52.6548 89.0613 51.6842 88.1867 51.0015 87.056C50.3188 85.904 49.9775 84.5707 49.9775 83.056C49.9775 81.52 50.3188 80.1653 51.0015 78.992C51.7055 77.8187 52.7082 76.912 54.0095 76.272C55.3322 75.6107 56.8895 75.28 58.6815 75.28C61.7748 75.28 64.1428 76.2293 65.7855 78.128C67.4282 80.0053 68.2495 82.7573 68.2495 86.384C68.2495 90.3307 67.4282 93.3067 65.7855 95.312C64.1428 97.3173 61.8388 98.32 58.8735 98.32ZM58.6815 87.12C60.0895 87.12 61.1882 86.768 61.9775 86.064C62.7668 85.3387 63.1615 84.336 63.1615 83.056C63.1615 81.712 62.7668 80.6667 61.9775 79.92C61.1882 79.152 60.0895 78.768 58.6815 78.768C57.3162 78.768 56.2495 79.152 55.4815 79.92C54.7135 80.6667 54.3295 81.712 54.3295 83.056C54.3295 84.336 54.7135 85.3387 55.4815 86.064C56.2495 86.768 57.3162 87.12 58.6815 87.12ZM85.1595 86.352C84.4128 86.352 83.7942 86.1173 83.3035 85.648C82.8128 85.1573 82.5675 84.56 82.5675 83.856C82.5675 83.152 82.8128 82.5547 83.3035 82.064C83.7942 81.552 84.4128 81.296 85.1595 81.296C85.9062 81.296 86.5248 81.552 87.0155 82.064C87.5062 82.5547 87.7515 83.152 87.7515 83.856C87.7515 84.5387 87.4955 85.1253 86.9835 85.616C86.4928 86.1067 85.8848 86.352 85.1595 86.352ZM85.1595 97.904C84.4128 97.904 83.7942 97.6693 83.3035 97.2C82.8128 96.7093 82.5675 96.112 82.5675 95.408C82.5675 94.704 82.8128 94.1067 83.3035 93.616C83.7942 93.104 84.4128 92.848 85.1595 92.848C85.9062 92.848 86.5248 93.104 87.0155 93.616C87.5062 94.1067 87.7515 94.704 87.7515 95.408C87.7515 96.0907 87.4955 96.6773 86.9835 97.168C86.4928 97.6587 85.8848 97.904 85.1595 97.904ZM111.247 98.32C109.348 98.32 107.61 97.9787 106.031 97.296C104.452 96.592 103.14 95.5787 102.095 94.256L104.719 91.696C105.764 92.8693 106.767 93.6907 107.727 94.16C108.687 94.608 109.85 94.832 111.215 94.832C112.708 94.832 113.892 94.448 114.767 93.68C115.642 92.912 116.079 91.6853 116.079 90C116.079 88.3787 115.663 87.184 114.831 86.416C113.999 85.648 112.89 85.264 111.503 85.264C110.308 85.264 109.295 85.52 108.463 86.032C107.652 86.544 106.906 87.376 106.223 88.528L103.119 87.408L104.271 78.704C104.036 78.64 103.866 78.5333 103.759 78.384C103.652 78.2347 103.599 78.0213 103.599 77.744C103.599 77.488 103.62 77.2747 103.663 77.104C103.77 76.5067 103.94 76.112 104.175 75.92C104.41 75.7067 104.794 75.6 105.327 75.6H118.991V79.152H107.951L107.407 83.216C108.666 82.256 110.18 81.776 111.951 81.776C114.554 81.776 116.612 82.4907 118.127 83.92C119.663 85.328 120.431 87.3547 120.431 90C120.431 91.792 120.036 93.3173 119.247 94.576C118.479 95.8133 117.402 96.752 116.015 97.392C114.628 98.0107 113.039 98.32 111.247 98.32ZM133.473 98.32C131.212 98.32 129.399 97.84 128.033 96.88C126.668 95.8987 125.804 94.576 125.441 92.912L128.961 91.696C129.644 93.7867 131.169 94.832 133.537 94.832C135.201 94.832 136.535 94.192 137.537 92.912C138.54 91.6107 139.041 89.808 139.041 87.504H138.881C137.409 89.5733 135.425 90.608 132.929 90.608C131.244 90.608 129.772 90.2987 128.513 89.68C127.255 89.0613 126.284 88.1867 125.601 87.056C124.919 85.904 124.577 84.5707 124.577 83.056C124.577 81.52 124.919 80.1653 125.601 78.992C126.305 77.8187 127.308 76.912 128.609 76.272C129.932 75.6107 131.489 75.28 133.281 75.28C136.375 75.28 138.743 76.2293 140.385 78.128C142.028 80.0053 142.849 82.7573 142.849 86.384C142.849 90.3307 142.028 93.3067 140.385 95.312C138.743 97.3173 136.439 98.32 133.473 98.32ZM133.281 87.12C134.689 87.12 135.788 86.768 136.577 86.064C137.367 85.3387 137.761 84.336 137.761 83.056C137.761 81.712 137.367 80.6667 136.577 79.92C135.788 79.152 134.689 78.768 133.281 78.768C131.916 78.768 130.849 79.152 130.081 79.92C129.313 80.6667 128.929 81.712 128.929 83.056C128.929 84.336 129.313 85.3387 130.081 86.064C130.849 86.768 131.916 87.12 133.281 87.12Z" fill="#40A578"/>
<path d="M85.5 1.4261C85.5 0.638488 86.1386 -0.00124264 86.9261 0.0118904C102.955 0.279201 118.597 5.04835 132.059 13.7884C145.919 22.7876 156.875 35.6108 163.6 50.7065C170.325 65.8022 172.532 82.5234 169.952 98.8467C167.446 114.7 160.531 129.519 150.01 141.614C149.493 142.208 148.59 142.255 148.004 141.728C147.419 141.202 147.372 140.301 147.889 139.706C158.042 128.021 164.715 113.71 167.135 98.4015C169.628 82.6227 167.496 66.4593 160.995 51.8672C154.494 37.2751 143.904 24.8796 130.505 16.1807C117.506 7.74079 102.404 3.13152 86.9261 2.8645C86.1386 2.85092 85.5 2.21372 85.5 1.4261Z" fill="url(#paint0_linear_208_165)"/>
<g filter="url(#filter0_d_208_165)">
<circle cx="145.808" cy="144.281" r="6.10714" fill="#40A578"/>
</g>
<path d="M62.2979 134.682C62.6039 135.022 63.137 135.022 63.443 134.682M59.2061 127.531V128.137C59.2061 129.454 58.8255 130.743 58.1099 131.849L57.7175 132.455H68.0233L67.6309 131.849C66.9154 130.743 66.5347 129.454 66.5347 128.137V127.531C66.5347 125.508 64.8941 123.867 62.8704 123.867C60.8467 123.867 59.2061 125.508 59.2061 127.531Z" stroke="white" stroke-width="1.5" stroke-linecap="round" stroke-linejoin="round"/>
<path d="M74.2954 127L73.1054 128.008L72.0414 126.79L74.9394 124.382C75.2007 124.167 75.4434 124.06 75.6674 124.06C75.8821 124.06 76.0874 124.163 76.2834 124.368C76.4794 124.573 76.5774 124.769 76.5774 124.956C76.5774 125.133 76.4747 125.311 76.2694 125.488L76.1714 125.572V134H74.2954V127ZM81.5585 134.14C80.7278 134.14 79.9671 133.991 79.2765 133.692C78.5858 133.384 78.0118 132.941 77.5545 132.362L78.7025 131.242C79.1598 131.755 79.5985 132.115 80.0185 132.32C80.4385 132.516 80.9471 132.614 81.5445 132.614C82.1978 132.614 82.7158 132.446 83.0985 132.11C83.4811 131.774 83.6725 131.237 83.6725 130.5C83.6725 129.791 83.4905 129.268 83.1265 128.932C82.7625 128.596 82.2771 128.428 81.6705 128.428C81.1478 128.428 80.7045 128.54 80.3405 128.764C79.9858 128.988 79.6591 129.352 79.3605 129.856L78.0025 129.366L78.5065 125.558C78.4038 125.53 78.3291 125.483 78.2825 125.418C78.2358 125.353 78.2125 125.259 78.2125 125.138C78.2125 125.026 78.2218 124.933 78.2405 124.858C78.2871 124.597 78.3618 124.424 78.4645 124.34C78.5671 124.247 78.7351 124.2 78.9685 124.2H84.9465V125.754H80.1165L79.8785 127.532C80.4291 127.112 81.0918 126.902 81.8665 126.902C83.0051 126.902 83.9058 127.215 84.5685 127.84C85.2405 128.456 85.5765 129.343 85.5765 130.5C85.5765 131.284 85.4038 131.951 85.0585 132.502C84.7225 133.043 84.2511 133.454 83.6445 133.734C83.0378 134.005 82.3425 134.14 81.5585 134.14ZM91.2939 128.904C90.9673 128.904 90.6966 128.801 90.4819 128.596C90.2673 128.381 90.1599 128.12 90.1599 127.812C90.1599 127.504 90.2673 127.243 90.4819 127.028C90.6966 126.804 90.9673 126.692 91.2939 126.692C91.6206 126.692 91.8913 126.804 92.1059 127.028C92.3206 127.243 92.4279 127.504 92.4279 127.812C92.4279 128.111 92.3159 128.367 92.0919 128.582C91.8773 128.797 91.6113 128.904 91.2939 128.904ZM91.2939 133.958C90.9673 133.958 90.6966 133.855 90.4819 133.65C90.2673 133.435 90.1599 133.174 90.1599 132.866C90.1599 132.558 90.2673 132.297 90.4819 132.082C90.6966 131.858 90.9673 131.746 91.2939 131.746C91.6206 131.746 91.8913 131.858 92.1059 132.082C92.3206 132.297 92.4279 132.558 92.4279 132.866C92.4279 133.165 92.3159 133.421 92.0919 133.636C91.8773 133.851 91.6113 133.958 91.2939 133.958ZM101.335 134.14C100.243 134.14 99.3285 133.893 98.5912 133.398C97.8539 132.903 97.3312 132.171 97.0232 131.2L98.7452 130.64C98.9225 131.331 99.2259 131.835 99.6552 132.152C100.094 132.46 100.654 132.614 101.335 132.614C102.791 132.614 103.519 131.998 103.519 130.766C103.519 130.234 103.384 129.833 103.113 129.562C102.843 129.282 102.469 129.142 101.993 129.142C101.797 129.142 101.606 129.17 101.419 129.226L101.223 129.478C101.055 129.693 100.887 129.8 100.719 129.8C100.551 129.8 100.309 129.693 99.9912 129.478C99.7952 129.338 99.6972 129.198 99.6972 129.058C99.6972 128.927 99.7672 128.75 99.9072 128.526L101.769 125.684H99.5012L99.0812 126.916L97.6392 125.992L98.2552 124.2H104.121C104.383 124.2 104.579 124.237 104.709 124.312C104.84 124.377 104.905 124.499 104.905 124.676C104.905 124.779 104.877 124.914 104.821 125.082C104.737 125.325 104.635 125.488 104.513 125.572C104.392 125.647 104.205 125.684 103.953 125.684H103.673L102.259 127.812C102.455 127.747 102.689 127.714 102.959 127.714C103.407 127.714 103.818 127.831 104.191 128.064C104.565 128.297 104.863 128.647 105.087 129.114C105.311 129.571 105.423 130.122 105.423 130.766C105.423 131.438 105.26 132.031 104.933 132.544C104.616 133.048 104.149 133.44 103.533 133.72C102.917 134 102.185 134.14 101.335 134.14ZM110.49 134.14C109.202 134.14 108.199 133.697 107.48 132.81C106.761 131.914 106.402 130.668 106.402 129.072C106.402 128.027 106.561 127.131 106.878 126.384C107.205 125.628 107.676 125.054 108.292 124.662C108.908 124.261 109.641 124.06 110.49 124.06C111.339 124.06 112.072 124.261 112.688 124.662C113.304 125.054 113.771 125.628 114.088 126.384C114.415 127.131 114.578 128.027 114.578 129.072C114.578 130.668 114.219 131.914 113.5 132.81C112.781 133.697 111.778 134.14 110.49 134.14ZM110.49 132.614C111.181 132.614 111.717 132.315 112.1 131.718C112.483 131.111 112.674 130.229 112.674 129.072C112.674 127.933 112.483 127.07 112.1 126.482C111.727 125.885 111.19 125.586 110.49 125.586C109.79 125.586 109.249 125.885 108.866 126.482C108.493 127.07 108.306 127.933 108.306 129.072C108.306 130.229 108.497 131.111 108.88 131.718C109.263 132.315 109.799 132.614 110.49 132.614Z" fill="white"/>
<path d="M37.82 43.992H35.42V42.6H41.828V43.992H39.428V51H37.82V43.992ZM43.9222 44.52C43.6102 44.52 43.3502 44.424 43.1422 44.232C42.9422 44.04 42.8422 43.796 42.8422 43.5C42.8422 43.204 42.9422 42.96 43.1422 42.768C43.3502 42.576 43.6102 42.48 43.9222 42.48C44.2342 42.48 44.4902 42.576 44.6902 42.768C44.8982 42.96 45.0022 43.204 45.0022 43.5C45.0022 43.796 44.8982 44.04 44.6902 44.232C44.4902 44.424 44.2342 44.52 43.9222 44.52ZM43.1302 45.18H44.7142V51H43.1302V45.18ZM53.3575 51.12C53.2215 50.88 53.1215 50.632 53.0575 50.376C53.0015 50.112 52.9735 49.816 52.9735 49.488V47.532C52.9735 47.124 52.9055 46.824 52.7695 46.632C52.6335 46.44 52.4295 46.344 52.1575 46.344C51.5255 46.344 51.2095 46.74 51.2095 47.532V51H49.6495V47.52C49.6495 47.096 49.5855 46.796 49.4575 46.62C49.3375 46.436 49.1415 46.344 48.8695 46.344C48.5255 46.344 48.2735 46.468 48.1135 46.716C47.9535 46.956 47.8735 47.32 47.8735 47.808V51H46.2895V46.812C46.2895 46.572 46.2695 46.364 46.2295 46.188C46.1975 46.012 46.1295 45.816 46.0255 45.6L47.3455 45.06C47.4175 45.188 47.4815 45.34 47.5375 45.516C47.6015 45.692 47.6375 45.844 47.6455 45.972C47.8135 45.676 48.0375 45.452 48.3175 45.3C48.5975 45.14 48.8975 45.06 49.2175 45.06C49.8495 45.06 50.3175 45.356 50.6215 45.948C50.8775 45.636 51.1535 45.412 51.4495 45.276C51.7455 45.132 52.0975 45.06 52.5055 45.06C53.1615 45.06 53.6655 45.252 54.0175 45.636C54.3775 46.02 54.5575 46.524 54.5575 47.148V49.452C54.5575 49.892 54.6375 50.272 54.7975 50.592L53.3575 51.12ZM58.7428 51.12C57.7828 51.12 57.0228 50.852 56.4628 50.316C55.9108 49.78 55.6348 49.052 55.6348 48.132C55.6348 47.532 55.7468 47 55.9708 46.536C56.1948 46.072 56.5268 45.712 56.9668 45.456C57.4068 45.192 57.9388 45.06 58.5628 45.06C59.1708 45.06 59.6988 45.188 60.1468 45.444C60.5948 45.692 60.9348 46.036 61.1668 46.476C61.3988 46.908 61.5148 47.392 61.5148 47.928C61.5148 48.192 61.4268 48.396 61.2508 48.54C61.0828 48.676 60.8468 48.744 60.5428 48.744H57.2068C57.2068 49.072 57.3468 49.336 57.6268 49.536C57.9148 49.736 58.2868 49.836 58.7428 49.836C59.1188 49.836 59.4348 49.784 59.6908 49.68C59.9548 49.568 60.1868 49.412 60.3868 49.212L61.1788 50.052C60.9148 50.388 60.5748 50.652 60.1588 50.844C59.7428 51.028 59.2708 51.12 58.7428 51.12ZM59.9428 47.508C59.9428 47.156 59.8108 46.872 59.5468 46.656C59.2908 46.432 58.9628 46.32 58.5628 46.32C58.1788 46.32 57.8548 46.432 57.5908 46.656C57.3348 46.872 57.2068 47.156 57.2068 47.508H59.9428ZM65.8034 44.088C65.8034 43.92 65.7794 43.792 65.7314 43.704C65.6914 43.608 65.6354 43.528 65.5634 43.464C65.5314 43.432 65.5034 43.4 65.4794 43.368C65.4554 43.328 65.4434 43.288 65.4434 43.248C65.4434 43.224 65.4514 43.188 65.4674 43.14C65.5314 42.956 65.6354 42.784 65.7794 42.624C65.9314 42.464 66.0874 42.384 66.2474 42.384C66.4234 42.384 66.5754 42.456 66.7034 42.6H71.1314V43.992H67.4114V46.092H70.1234V47.412H67.4114V51H65.8034V44.088ZM74.1736 51.132C73.5736 51.132 73.0456 51.008 72.5896 50.76C72.1416 50.504 71.7936 50.148 71.5456 49.692C71.3056 49.228 71.1856 48.696 71.1856 48.096C71.1856 47.496 71.3056 46.968 71.5456 46.512C71.7936 46.048 72.1416 45.692 72.5896 45.444C73.0456 45.188 73.5736 45.06 74.1736 45.06C74.7736 45.06 75.2976 45.188 75.7456 45.444C76.2016 45.692 76.5496 46.048 76.7896 46.512C77.0376 46.968 77.1616 47.496 77.1616 48.096C77.1616 48.696 77.0376 49.228 76.7896 49.692C76.5496 50.148 76.2016 50.504 75.7456 50.76C75.2976 51.008 74.7736 51.132 74.1736 51.132ZM74.1736 49.848C74.6296 49.848 74.9736 49.696 75.2056 49.392C75.4376 49.08 75.5536 48.648 75.5536 48.096C75.5536 47.544 75.4376 47.116 75.2056 46.812C74.9736 46.5 74.6296 46.344 74.1736 46.344C73.7176 46.344 73.3736 46.5 73.1416 46.812C72.9096 47.116 72.7936 47.544 72.7936 48.096C72.7936 48.648 72.9096 49.08 73.1416 49.392C73.3736 49.696 73.7176 49.848 74.1736 49.848ZM78.2699 46.812C78.2699 46.572 78.2499 46.364 78.2099 46.188C78.1779 46.012 78.1099 45.816 78.0059 45.6L79.4099 45.06C79.4819 45.188 79.5459 45.34 79.6019 45.516C79.6659 45.692 79.7019 45.844 79.7099 45.972C79.9259 45.668 80.1499 45.44 80.3819 45.288C80.6219 45.136 80.8939 45.06 81.1979 45.06C81.4379 45.06 81.6459 45.092 81.8219 45.156C82.0059 45.22 82.1979 45.328 82.3979 45.48L81.8099 46.572C81.6739 46.492 81.5499 46.436 81.4379 46.404C81.3259 46.364 81.2019 46.344 81.0659 46.344C80.6499 46.344 80.3419 46.472 80.1419 46.728C79.9499 46.984 79.8539 47.372 79.8539 47.892V51H78.2699V46.812ZM86.4039 43.872C86.4039 43.704 86.3479 43.572 86.2359 43.476C86.1879 43.428 86.1519 43.388 86.1279 43.356C86.1039 43.316 86.0919 43.26 86.0919 43.188C86.0919 43.14 86.0959 43.104 86.1039 43.08C86.1439 42.88 86.2359 42.716 86.3799 42.588C86.5319 42.452 86.7079 42.384 86.9079 42.384C87.1319 42.384 87.3279 42.456 87.4959 42.6H89.1279C90.2479 42.6 91.1079 42.852 91.7079 43.356C92.3079 43.852 92.6079 44.548 92.6079 45.444C92.6079 46.34 92.3159 47.04 91.7319 47.544C91.1479 48.048 90.3039 48.3 89.1999 48.3H88.0119V51H86.4039V43.872ZM89.1639 46.908C89.7479 46.908 90.1959 46.788 90.5079 46.548C90.8199 46.3 90.9759 45.932 90.9759 45.444C90.9759 44.964 90.8199 44.604 90.5079 44.364C90.1959 44.116 89.7479 43.992 89.1639 43.992H88.0119V46.908H89.1639ZM95.5042 51.12C95.0082 51.12 94.5642 51.004 94.1722 50.772C93.7802 50.54 93.4722 50.204 93.2482 49.764C93.0242 49.324 92.9122 48.8 92.9122 48.192C92.9122 47.544 93.0242 46.984 93.2482 46.512C93.4802 46.04 93.8002 45.68 94.2082 45.432C94.6242 45.184 95.1082 45.06 95.6602 45.06C96.3082 45.06 96.8482 45.304 97.2802 45.792V45.18H98.8042V49.368C98.8042 49.648 98.8282 49.88 98.8762 50.064C98.9242 50.248 99.0002 50.432 99.1042 50.616L97.8202 51.12C97.5802 50.856 97.4442 50.556 97.4122 50.22H97.3882C97.1642 50.508 96.8882 50.732 96.5602 50.892C96.2402 51.044 95.8882 51.12 95.5042 51.12ZM95.8282 49.86C96.2922 49.86 96.6442 49.712 96.8842 49.416C97.1242 49.112 97.2442 48.708 97.2442 48.204V47.988C97.2442 47.524 97.1242 47.132 96.8842 46.812C96.6522 46.484 96.3162 46.32 95.8762 46.32C95.4282 46.32 95.0842 46.48 94.8442 46.8C94.6122 47.12 94.4962 47.584 94.4962 48.192C94.4962 48.736 94.6082 49.152 94.8322 49.44C95.0642 49.72 95.3962 49.86 95.8282 49.86ZM100.047 52.476C100.591 52.292 101.019 52.048 101.331 51.744C101.651 51.448 101.875 51.028 102.003 50.484L99.6388 45.18H101.475L102.819 48.756L104.043 45.18H105.867L103.503 51.024C103.199 51.768 102.823 52.344 102.375 52.752C101.927 53.16 101.303 53.492 100.503 53.748L100.047 52.476ZM114.037 51.12C113.901 50.88 113.801 50.632 113.737 50.376C113.681 50.112 113.653 49.816 113.653 49.488V47.532C113.653 47.124 113.585 46.824 113.449 46.632C113.313 46.44 113.109 46.344 112.837 46.344C112.205 46.344 111.889 46.74 111.889 47.532V51H110.329V47.52C110.329 47.096 110.265 46.796 110.137 46.62C110.017 46.436 109.821 46.344 109.549 46.344C109.205 46.344 108.953 46.468 108.793 46.716C108.633 46.956 108.553 47.32 108.553 47.808V51H106.969V46.812C106.969 46.572 106.949 46.364 106.909 46.188C106.877 46.012 106.809 45.816 106.705 45.6L108.025 45.06C108.097 45.188 108.161 45.34 108.217 45.516C108.281 45.692 108.317 45.844 108.325 45.972C108.493 45.676 108.717 45.452 108.997 45.3C109.277 45.14 109.577 45.06 109.897 45.06C110.529 45.06 110.997 45.356 111.301 45.948C111.557 45.636 111.833 45.412 112.129 45.276C112.425 45.132 112.777 45.06 113.185 45.06C113.841 45.06 114.345 45.252 114.697 45.636C115.057 46.02 115.237 46.524 115.237 47.148V49.452C115.237 49.892 115.317 50.272 115.477 50.592L114.037 51.12ZM119.423 51.12C118.463 51.12 117.703 50.852 117.143 50.316C116.591 49.78 116.315 49.052 116.315 48.132C116.315 47.532 116.427 47 116.651 46.536C116.875 46.072 117.207 45.712 117.647 45.456C118.087 45.192 118.619 45.06 119.243 45.06C119.851 45.06 120.379 45.188 120.827 45.444C121.275 45.692 121.615 46.036 121.847 46.476C122.079 46.908 122.195 47.392 122.195 47.928C122.195 48.192 122.107 48.396 121.931 48.54C121.763 48.676 121.527 48.744 121.223 48.744H117.887C117.887 49.072 118.027 49.336 118.307 49.536C118.595 49.736 118.967 49.836 119.423 49.836C119.799 49.836 120.115 49.784 120.371 49.68C120.635 49.568 120.867 49.412 121.067 49.212L121.859 50.052C121.595 50.388 121.255 50.652 120.839 50.844C120.423 51.028 119.951 51.12 119.423 51.12ZM120.623 47.508C120.623 47.156 120.491 46.872 120.227 46.656C119.971 46.432 119.643 46.32 119.243 46.32C118.859 46.32 118.535 46.432 118.271 46.656C118.015 46.872 117.887 47.156 117.887 47.508H120.623ZM127.601 51.12C127.465 50.88 127.365 50.632 127.301 50.376C127.245 50.112 127.217 49.816 127.217 49.488V47.556C127.217 46.748 126.881 46.344 126.209 46.344C125.809 46.344 125.485 46.5 125.237 46.812C124.997 47.124 124.877 47.52 124.877 48V51H123.293V46.812C123.293 46.572 123.273 46.364 123.233 46.188C123.201 46.012 123.133 45.816 123.029 45.6L124.433 45.06C124.505 45.188 124.569 45.34 124.625 45.516C124.689 45.692 124.725 45.844 124.733 45.972C124.965 45.7 125.249 45.48 125.585 45.312C125.929 45.144 126.293 45.06 126.677 45.06C127.421 45.06 127.961 45.276 128.297 45.708C128.633 46.132 128.801 46.748 128.801 47.556V49.452C128.801 49.892 128.881 50.272 129.041 50.592L127.601 51.12ZM132.585 51.108C132.017 51.108 131.581 50.952 131.277 50.64C130.981 50.328 130.833 49.88 130.833 49.296V46.452H129.765L130.101 45.18H130.857V43.968L132.393 43.26V45.18H133.953L133.641 46.452H132.417V49.332C132.417 49.516 132.457 49.648 132.537 49.728C132.617 49.808 132.741 49.848 132.909 49.848C133.109 49.848 133.289 49.808 133.449 49.728L133.821 50.868C133.685 50.932 133.497 50.988 133.257 51.036C133.025 51.084 132.801 51.108 132.585 51.108Z" fill="white"/>
<defs>
<filter id="filter0_d_208_165" x="129.701" y="132.174" width="32.2144" height="32.2148" filterUnits="userSpaceOnUse" color-interpolation-filters="sRGB">
<feFlood flood-opacity="0" result="BackgroundImageFix"/>
<feColorMatrix in="SourceAlpha" type="matrix" values="0 0 0 0 0 0 0 0 0 0 0 0 0 0 0 0 0 0 127 0" result="hardAlpha"/>
<feOffset dy="4"/>
<feGaussianBlur stdDeviation="5"/>
<feComposite in2="hardAlpha" operator="out"/>
<feColorMatrix type="matrix" values="0 0 0 0 0.25098 0 0 0 0 0.647059 0 0 0 0 0.470588 0 0 0 1 0"/>
<feBlend mode="normal" in2="BackgroundImageFix" result="effect1_dropShadow_208_165"/>
<feBlend mode="normal" in="SourceGraphic" in2="effect1_dropShadow_208_165" result="shape"/>
</filter>
<linearGradient id="paint0_linear_208_165" x1="85.5" y1="-2.13858e-06" x2="157.259" y2="140.846" gradientUnits="userSpaceOnUse">
<stop stop-color="#2A3342"/>
<stop offset="1" stop-color="#40A578"/>
</linearGradient>
</defs>
</svg>
