<svg xmlns="http://www.w3.org/2000/svg" version="1.1" xmlns:xlink="http://www.w3.org/1999/xlink" width="512" height="512" x="0" y="0" viewBox="0 0 512.279 512.279" style="enable-background:new 0 0 512 512" xml:space="preserve" class=""><g><path d="M463.678 71.542h-91.705V41.441c0-4.142-3.357-7.5-7.5-7.5s-7.5 3.358-7.5 7.5v30.101h-31.067c-4.143 0-7.5 3.358-7.5 7.5s3.357 7.5 7.5 7.5h31.067V118.3h-5.629c-7.86 0-14.255 6.395-14.255 14.254v88.294c0 7.86 6.395 14.254 14.255 14.254h5.629v59.501c0 4.142 3.357 7.5 7.5 7.5s7.5-3.358 7.5-7.5v-59.501h5.629c7.859 0 14.254-6.395 14.254-14.254v-88.294c0-7.86-6.395-14.254-14.254-14.254h-5.629V86.542h91.705c18.021 0 32.684 14.662 32.684 32.684v256.695H15.917V119.227c0-18.022 14.662-32.684 32.684-32.684h131.472v14.637h-5.629c-7.86 0-14.254 6.395-14.254 14.254v88.294c0 7.86 6.395 14.254 14.254 14.254h5.629v66.273a7.5 7.5 0 0 0 15 0v-66.273h5.629c7.86 0 14.254-6.395 14.254-14.254v-88.294c0-7.86-6.395-14.254-14.254-14.254h-5.629V86.542h31.067a7.5 7.5 0 0 0 0-15h-31.067v-3.704a7.5 7.5 0 0 0-15 0v3.704H48.601C22.308 71.542.917 92.933.917 119.226v264.195c0 26.293 21.391 47.684 47.684 47.684H162.77v38.134l-24.173 28.04h-9.595a7.5 7.5 0 0 0 0 15h253.583c4.143 0 7.5-3.358 7.5-7.5s-3.357-7.5-7.5-7.5h-8.904l-24.173-28.04v-38.134h114.17c26.293 0 47.684-21.391 47.684-47.684V119.227c0-26.293-21.391-47.685-47.684-47.685zm-86.822 148.562H352.09v-86.803h24.767v86.803zm-176.9-17.122h-24.767V116.18h24.767zm263.722 213.123H311.887c-4.143 0-7.5 3.358-7.5 7.5s3.357 7.5 7.5 7.5h22.621v33.421h-18.682c-4.143 0-7.5 3.358-7.5 7.5s3.357 7.5 7.5 7.5h22.745l15.305 17.753H158.402l15.305-17.753h22.745a7.5 7.5 0 0 0 0-15H177.77v-33.421h102.154c4.143 0 7.5-3.358 7.5-7.5s-3.357-7.5-7.5-7.5H48.601c-15.441 0-28.406-10.766-31.806-25.184h478.688c-3.399 14.418-16.364 25.184-31.805 25.184z" fill="#35857d" opacity="1" data-original="#35857d" class=""></path><path d="M79.239 218.963a7.5 7.5 0 0 0-7.5 7.5v18.106c0 7.86 6.394 14.254 14.254 14.254h5.629v39.941a7.5 7.5 0 0 0 15 0v-39.941h5.629c7.86 0 14.254-6.394 14.254-14.254v-88.294c0-7.86-6.395-14.255-14.254-14.255h-5.629v-11.996a7.5 7.5 0 0 0-15 0v11.996h-5.629c-7.86 0-14.254 6.395-14.254 14.255v38.226a7.5 7.5 0 0 0 15 0v-37.48h24.768v86.803H86.739v-17.36a7.5 7.5 0 0 0-7.5-7.501zM262.893 203.141h5.63v39.94c0 4.142 3.357 7.5 7.5 7.5s7.5-3.358 7.5-7.5v-39.94h5.629c7.859 0 14.254-6.395 14.254-14.255v-58.827c0-4.142-3.357-7.5-7.5-7.5s-7.5 3.358-7.5 7.5v58.082h-24.767V52.338h24.767v45.759c0 4.142 3.357 7.5 7.5 7.5s7.5-3.358 7.5-7.5V51.592c0-7.859-6.395-14.254-14.254-14.254h-5.629V7.5c0-4.142-3.357-7.5-7.5-7.5s-7.5 3.358-7.5 7.5v29.838h-5.63c-7.86 0-14.254 6.395-14.254 14.254v137.294c0 7.861 6.394 14.255 14.254 14.255zM407.755 205.617a7.498 7.498 0 0 0 10.161 3.042l34.547-18.627-2.485 6.522a7.5 7.5 0 1 0 14.018 5.34l8.444-22.166a7.5 7.5 0 0 0-4.339-9.679l-23.527-8.963a7.501 7.501 0 0 0-5.34 14.018l5.455 2.078-33.892 18.274a7.5 7.5 0 0 0-3.042 10.161zM45.263 352.16a7.501 7.501 0 0 0 6.898 4.551 7.48 7.48 0 0 0 2.948-.607l96.778-41.419 8.795 23.043a7.5 7.5 0 0 0 10.566 3.927l159.884-86.205a7.5 7.5 0 1 0-7.119-13.203l-152.364 82.15-8.531-22.353a7.499 7.499 0 0 0-9.958-4.221l-103.953 44.49a7.503 7.503 0 0 0-3.944 9.847z" fill="#35857d" opacity="1" data-original="#35857d" class=""></path></g></svg>