<svg width="20" height="20" viewBox="0 0 20 20" fill="none" xmlns="http://www.w3.org/2000/svg">
<path d="M3.75 17.75C4.90742 15.4799 7.02709 13.75 9.75 13.75C12.4519 13.75 14.5831 15.5084 15.75 17.75M12.0833 8.1944C12.0833 9.5445 10.9889 10.6389 9.6389 10.6389C8.2889 10.6389 7.19444 9.5445 7.19444 8.1944C7.19444 6.84442 8.2889 5.75 9.6389 5.75C10.9889 5.75 12.0833 6.84442 12.0833 8.1944ZM9.75 18.75C6.00027 18.75 4.1254 18.75 2.81107 17.7951C2.3866 17.4867 2.01331 17.1134 1.70491 16.6889C0.75 15.3746 0.75 13.4997 0.75 9.75C0.75 6.00027 0.75 4.1254 1.70491 2.81107C2.01331 2.3866 2.3866 2.01331 2.81107 1.70491C4.1254 0.75 6.00027 0.75 9.75 0.75C13.4997 0.75 15.3746 0.75 16.6889 1.70491C17.1134 2.01331 17.4867 2.3866 17.7951 2.81107C18.75 4.1254 18.75 6.00027 18.75 9.75C18.75 13.4997 18.75 15.3746 17.7951 16.6889C17.4867 17.1134 17.1134 17.4867 16.6889 17.7951C15.3746 18.75 13.4997 18.75 9.75 18.75Z" stroke="#E4E4E4" stroke-width="1.5" stroke-linecap="round" stroke-linejoin="round"/>
</svg>
