<svg width="31" height="31" viewBox="0 0 31 31" fill="none" xmlns="http://www.w3.org/2000/svg">
<path d="M2.5835 27.125V21.9583C2.5835 20.5316 3.74009 19.375 5.16683 19.375H18.0835C19.5103 19.375 20.6668 20.5316 20.6668 21.9583V27.125M20.6668 3.875C21.7782 4.15955 22.7632 4.8059 23.4666 5.71215C24.1701 6.6184 24.5519 7.73299 24.5519 8.88021C24.5519 10.0274 24.1701 11.142 23.4666 12.0483C22.7632 12.9545 21.7782 13.6009 20.6668 13.8854M24.5418 19.375H25.8335C27.2603 19.375 28.4168 20.5316 28.4168 21.9583V27.125M16.7918 9.04167C16.7918 11.8951 14.4786 14.2083 11.6252 14.2083C8.77169 14.2083 6.4585 11.8951 6.4585 9.04167C6.4585 6.18819 8.77169 3.875 11.6252 3.875C14.4786 3.875 16.7918 6.18819 16.7918 9.04167Z" stroke="white" stroke-width="1.5" stroke-linecap="round" stroke-linejoin="round"/>
</svg>
